<svg width="336" height="73" viewBox="0 0 336 73" fill="none" xmlns="http://www.w3.org/2000/svg">
<path fill-rule="evenodd" clip-rule="evenodd" d="M31.5 0L30.7619 0.426171L1.75 17.1762L0.5 17.8979V19.3412V52.8412V54.2846L1.75 55.0063L30.7619 71.7563L31.5 72.1825V66.409L5.5 51.3979V20.7846L31.5 5.7735V0Z" fill="#0E50F6"/>
<path fill-rule="evenodd" clip-rule="evenodd" d="M31.5 12.3974L30.7403 12.8406L12.7403 23.3406L11.5 24.0641V25.5V46.5V47.9359L12.7403 48.6595L30.7403 59.1595L31.5 59.6026V53.8141L16.5 45.0641V26.9359L31.5 18.1859V12.3974Z" fill="#0E50F6"/>
<path fill-rule="evenodd" clip-rule="evenodd" d="M31.5 26.2778L23 31V41L31.5 45.7222V26.2778Z" fill="#0E50F6"/>
<path fill-rule="evenodd" clip-rule="evenodd" d="M44.0178 6.6143L47.7772 8.80662L63.5 17.9755V19.3412V23.7636L49.0178 15.3182V24.6014L63.5 32.4372V38.1221L49.0178 30.2864V32.9037V51.7729L44.0178 54.6596V32.9037V26.0912V10.9662V6.6143Z" fill="#0E50F6"/>
<path fill-rule="evenodd" clip-rule="evenodd" d="M34.708 1.14786V66.5912V70.9214L38.458 68.7563L62.2737 55.0063L63.5237 54.2846V52.8412V42.8564L58.5237 39.9697V51.3979L39.708 62.2611V4.03461L34.708 1.14786Z" fill="#0E50F6"/>
<path d="M99.6 31.4C95.4133 31.4 92.2533 30.2667 90.12 28C87.9867 25.7333 86.92 22.28 86.92 17.64C86.92 13.08 87.9733 9.65333 90.08 7.36C92.1867 5.04 95.36 3.88 99.6 3.88C101.013 3.88 102.413 4.05333 103.8 4.4C105.213 4.74667 106.573 5.22667 107.88 5.84V9.8C106.573 9.02667 105.267 8.46667 103.96 8.12C102.68 7.74667 101.413 7.56 100.16 7.56C98.2133 7.56 96.5867 7.90667 95.28 8.6C94 9.29333 93.04 10.3733 92.4 11.84C91.7867 13.3067 91.48 15.2533 91.48 17.68C91.48 20.0533 91.8 21.9867 92.44 23.48C93.08 24.9467 94.04 26.0267 95.32 26.72C96.6267 27.3867 98.28 27.72 100.28 27.72C101.48 27.72 102.72 27.5467 104 27.2C105.28 26.8267 106.573 26.2667 107.88 25.52V29.48C107.08 29.88 106.213 30.2267 105.28 30.52C104.347 30.8133 103.4 31.0267 102.44 31.16C101.48 31.32 100.533 31.4 99.6 31.4ZM124.52 31.44C121.88 31.44 119.627 30.9333 117.76 29.92C115.92 28.9067 114.52 27.3867 113.56 25.36C112.6 23.3333 112.12 20.7733 112.12 17.68C112.12 13.12 113.173 9.68 115.28 7.36C117.413 5.04 120.493 3.88 124.52 3.88C127.187 3.88 129.44 4.38667 131.28 5.4C133.12 6.41333 134.52 7.94666 135.48 10C136.467 12.0267 136.96 14.5867 136.96 17.68C136.96 22.2133 135.893 25.64 133.76 27.96C131.653 30.28 128.573 31.44 124.52 31.44ZM124.52 27.64C126.307 27.64 127.773 27.3067 128.92 26.64C130.093 25.9467 130.96 24.8667 131.52 23.4C132.107 21.9333 132.4 20.0133 132.4 17.64C132.4 15.2933 132.107 13.4 131.52 11.96C130.96 10.4933 130.093 9.42667 128.92 8.76C127.773 8.06667 126.307 7.72 124.52 7.72C122.76 7.72 121.293 8.06667 120.12 8.76C118.947 9.45333 118.067 10.5333 117.48 12C116.92 13.44 116.64 15.3333 116.64 17.68C116.64 20.0267 116.92 21.9333 117.48 23.4C118.067 24.8667 118.947 25.9467 120.12 26.64C121.293 27.3067 122.76 27.64 124.52 27.64ZM142.183 31V4.32H146.423L161.823 25.64L160.583 28.04V4.32H164.783V31H160.823L144.983 9.24L146.383 7.28V31H142.183ZM171.09 31V4.32H188.21V8.04H175.49V16H186.61V19.76H175.49V31H171.09ZM193.16 31V4.32H197.6V31H193.16ZM201.422 31L211.822 4.32H216.502L226.622 31H221.982L213.062 6.48L214.742 6.32L205.822 31H201.422ZM206.542 23.76L207.822 20.16H220.502L220.862 23.76H206.542ZM230.465 31V4.32H234.705L250.105 25.64L248.865 28.04V4.32H253.065V31H249.105L233.265 9.24L234.665 7.28V31H230.465ZM258.611 31V27.52L274.131 6.76L275.131 8.04H258.931V4.32H278.411V7.68L263.411 28.24L262.331 27.28H278.411V31H258.611ZM283.377 31V27.52L298.897 6.76L299.897 8.04H283.697V4.32H303.177V7.68L288.177 28.24L287.097 27.28H303.177V31H283.377ZM306.422 31L316.822 4.32H321.502L331.622 31H326.982L318.062 6.48L319.742 6.32L310.822 31H306.422ZM311.542 23.76L312.822 20.16H325.502L325.862 23.76H311.542ZM87.528 69V47.656H91.08V65.992H101.256V69H87.528ZM116.78 69L125.1 47.656H128.844L136.94 69H133.228L126.092 49.384L127.436 49.256L120.3 69H116.78ZM120.876 63.208L121.9 60.328H132.044L132.332 63.208H120.876ZM156.362 69L149.898 47.656H153.706L158.794 65.832H158.058L163.434 47.656H166.474L171.978 66.088H171.082L176.17 47.656H179.978L173.482 69H169.962L164.522 51.592H165.386L159.914 69H156.362ZM220.567 69V47.656H234.263V50.632H224.087V57H232.983V60.008H224.087V69H220.567ZM252.303 69V47.656H255.855V69H252.303ZM274.977 69V47.656H284.449C286.667 47.656 288.363 48.2 289.537 49.288C290.731 50.3547 291.329 51.9547 291.329 54.088C291.329 55.1973 291.105 56.2213 290.657 57.16C290.209 58.0987 289.558 58.8667 288.705 59.464C287.851 60.0613 286.838 60.4027 285.665 60.488L286.049 59.4L292.385 69H288.001L282.081 59.432L283.713 60.936H278.497V69H274.977ZM278.497 58.056H283.457C284.865 58.056 285.91 57.7467 286.593 57.128C287.297 56.5093 287.649 55.5707 287.649 54.312C287.649 53.1387 287.371 52.232 286.817 51.592C286.283 50.952 285.355 50.632 284.033 50.632H278.497V58.056ZM310.338 69V47.656H314.018L321.666 58.952L319.586 59.208L327.618 47.656H331.234V69H327.714V50.664L328.706 51.336L320.578 62.568L312.834 51.432L313.762 50.408V69H310.338Z" fill="black"/>
</svg>
